<?xml version="1.0" standalone="no"?>
<!DOCTYPE svg PUBLIC "-//W3C//DTD SVG 20010904//EN"
 "http://www.w3.org/TR/2001/REC-SVG-20010904/DTD/svg10.dtd">
<svg version="1.0" xmlns="http://www.w3.org/2000/svg"
 width="192.000000pt" height="192.000000pt" viewBox="0 0 192.000000 192.000000"
 preserveAspectRatio="xMidYMid meet">
<metadata>
Created by potrace 1.11, written by Peter Selinger 2001-2013
</metadata>
<g transform="translate(0.000000,192.000000) scale(0.100000,-0.100000)"
fill="#000000" stroke="none">
<path d="M680 1893 c-157 -53 -182 -71 -182 -130 0 -43 37 -83 77 -83 25 0 30
-9 38 -76 3 -26 -2 -35 -25 -49 -16 -9 -49 -34 -74 -56 -49 -42 -58 -45 -91
-26 -22 12 -23 14 -23 42 0 26 -47 65 -77 65 -38 0 -65 -20 -102 -77 -38 -57
-40 -95 -5 -130 22 -22 31 -25 70 -19 38 5 46 3 59 -18 14 -21 14 -27 -2 -62
-9 -21 -26 -73 -38 -114 l-22 -74 -52 -12 c-46 -10 -53 -9 -64 6 -32 45 -106
50 -143 9 -26 -29 -28 -206 -2 -232 43 -43 118 -37 146 13 14 24 21 28 47 23
54 -11 75 -22 75 -42 0 -24 25 -45 46 -37 12 5 15 15 10 48 -3 23 -12 48 -19
54 -12 12 -140 44 -176 44 -16 0 -21 -6 -21 -24 0 -23 -23 -56 -38 -56 -26 1
-34 22 -34 90 0 40 5 77 10 82 17 17 46 4 60 -25 7 -15 21 -27 30 -27 26 0
164 38 173 47 4 4 11 24 14 43 8 51 34 128 60 180 27 53 24 63 -38 130 -37 40
-40 41 -63 26 -57 -38 -74 -9 -31 52 22 30 37 42 52 40 16 -2 19 -9 17 -36 -3
-31 0 -34 55 -59 32 -15 66 -26 76 -25 10 0 40 21 66 45 26 25 66 56 89 71 49
31 48 28 38 117 -13 116 -15 119 -65 112 -42 -6 -58 7 -43 33 12 21 127 65
147 58 21 -9 18 -42 -5 -56 -11 -7 -20 -18 -20 -23 0 -17 98 -152 114 -158 8
-3 30 -2 48 4 18 5 51 9 73 9 68 0 80 8 98 58 23 63 22 77 -8 96 -30 19 -32
39 -7 64 27 27 88 18 110 -15 16 -25 15 -26 -16 -54 -31 -28 -32 -32 -26 -82
4 -28 11 -57 16 -64 5 -7 35 -19 66 -28 31 -9 78 -28 105 -42 l49 -24 36 26
c21 14 57 42 81 63 l43 38 -26 31 c-22 26 -23 33 -12 48 17 23 40 15 100 -38
37 -32 48 -48 43 -61 -6 -15 -14 -17 -47 -11 l-40 7 -39 -84 c-30 -67 -36 -87
-28 -105 20 -45 75 -36 61 9 -3 9 4 37 16 62 17 39 25 46 50 46 45 0 84 39 84
84 0 31 -7 44 -39 75 -57 53 -116 91 -143 91 -13 0 -37 -13 -53 -29 -30 -31
-37 -67 -19 -101 8 -15 3 -24 -27 -49 -21 -17 -41 -31 -45 -31 -5 0 -27 9 -51
19 -23 11 -60 25 -82 31 -50 15 -57 46 -20 86 36 38 34 93 -3 135 -24 27 -37
33 -85 37 -68 5 -101 -12 -123 -64 -13 -30 -12 -39 1 -71 9 -21 20 -40 25 -43
5 -3 7 -15 4 -27 -5 -17 -16 -21 -63 -26 -32 -4 -64 -9 -72 -12 -9 -3 -25 12
-45 42 -28 43 -30 50 -18 68 29 41 13 95 -36 120 -16 8 -30 15 -32 14 -2 0
-10 -3 -18 -6z"/>
<path d="M994 1465 c-14 -34 51 -60 76 -30 20 24 4 45 -35 45 -23 0 -38 -6
-41 -15z"/>
<path d="M692 1415 c-57 -25 -100 -65 -127 -118 -51 -102 -23 -206 68 -254 62
-32 207 -7 207 35 0 27 -23 34 -62 18 -67 -28 -148 -2 -172 56 -45 106 65 231
194 219 84 -8 122 -89 85 -178 -14 -33 -14 -38 -1 -52 14 -13 17 -13 34 2 19
18 42 79 42 113 0 36 -20 89 -43 116 -47 54 -152 74 -225 43z"/>
<path d="M1684 1410 c-26 -10 -64 -57 -64 -79 0 -28 -45 -24 -64 4 -18 27 -35
32 -53 14 -9 -9 -8 -19 2 -40 27 -51 41 -59 98 -52 63 7 77 17 77 53 0 37 24
56 53 43 27 -12 53 -80 43 -110 -9 -29 -41 -34 -65 -12 -26 25 -30 24 -83 -11
-54 -36 -60 -47 -48 -92 5 -18 12 -68 14 -111 2 -43 9 -84 15 -91 7 -8 37 -24
69 -37 31 -12 62 -26 69 -31 18 -14 51 0 55 24 4 28 33 47 49 31 16 -16 -6
-146 -27 -164 -19 -16 -42 4 -46 39 -3 29 4 28 -151 23 l-48 -1 -36 -77 c-20
-43 -37 -84 -39 -91 -2 -11 21 -43 69 -97 15 -16 22 -18 45 -9 65 25 96 -27
48 -79 -35 -38 -69 -25 -76 28 -5 35 -9 39 -68 63 -43 18 -68 23 -76 17 -12
-9 -60 -49 -163 -134 -12 -11 -21 -27 -19 -37 22 -125 30 -160 39 -166 6 -3
25 -4 43 -1 26 4 35 2 40 -11 4 -10 1 -23 -7 -30 -23 -22 -124 -57 -142 -50
-23 9 -21 41 3 54 11 6 20 17 20 24 0 7 -24 46 -52 85 l-53 73 -55 -7 c-87
-11 -181 -14 -232 -6 -26 4 -51 5 -56 2 -7 -5 -69 -98 -105 -157 -4 -6 6 -25
22 -42 29 -30 33 -67 8 -83 -10 -7 -120 33 -143 52 -30 25 1 74 43 66 30 -6
42 10 48 67 17 154 20 140 -40 176 -22 14 -69 49 -104 78 l-63 54 -72 -27
c-88 -35 -99 -43 -93 -72 4 -22 -15 -53 -31 -53 -26 1 -75 74 -67 100 8 24 40
26 61 5 9 -9 21 -12 29 -8 18 11 115 126 115 137 0 26 -43 96 -60 96 -26 0
-32 -27 -15 -60 14 -28 14 -31 -16 -65 -27 -31 -36 -35 -61 -30 -61 14 -123
-41 -112 -100 8 -43 60 -112 95 -124 55 -19 119 22 119 77 0 14 14 25 48 39
l48 20 45 -39 c24 -22 63 -51 87 -65 36 -21 42 -29 38 -52 -2 -14 -5 -40 -5
-58 -1 -27 -6 -33 -36 -43 -83 -27 -93 -144 -17 -180 49 -23 135 -50 157 -50
61 0 97 95 60 158 -17 28 -16 29 14 78 l31 50 49 -6 c54 -7 91 -6 181 4 l59 7
30 -42 c29 -39 30 -43 16 -70 -23 -44 -8 -92 34 -113 35 -17 44 -16 133 18 64
25 80 35 92 61 9 18 13 42 11 55 -7 35 -45 70 -77 70 -15 0 -28 3 -28 8 -1 4
-5 26 -9 50 -8 42 -8 43 33 74 22 17 55 44 72 60 28 26 34 28 58 17 16 -8 34
-30 46 -56 20 -45 48 -63 100 -63 37 0 97 60 106 105 12 65 -40 120 -107 113
-26 -2 -38 2 -53 20 -18 23 -18 24 6 80 l24 57 57 2 c42 2 57 0 57 -10 0 -26
45 -57 82 -57 54 0 81 38 98 135 11 67 11 82 -1 104 -31 55 -100 63 -140 17
l-21 -24 -47 20 -48 19 -2 56 c-1 31 -5 73 -10 94 -7 31 -5 41 10 55 16 14 24
15 45 6 53 -25 106 -7 133 45 16 32 14 56 -14 118 -19 44 -32 59 -59 70 -40
17 -43 17 -72 5z"/>
<path d="M1200 1403 c-75 -27 -90 -135 -25 -177 108 -71 245 33 180 135 -26
41 -102 61 -155 42z m78 -54 c58 -20 42 -89 -22 -89 -43 0 -69 20 -64 50 2 18
33 47 54 50 1 0 15 -5 32 -11z"/>
<path d="M1096 1054 c-9 -24 13 -45 42 -39 31 5 45 25 30 42 -15 19 -65 16
-72 -3z"/>
<path d="M505 980 c-11 -17 5 -50 25 -50 31 0 50 11 50 30 0 27 -61 43 -75 20z"/>
<path d="M1258 956 c-70 -47 -55 -147 26 -174 67 -22 130 26 128 97 -2 80 -87
122 -154 77z m78 -44 c23 -15 25 -48 4 -67 -41 -37 -97 24 -58 63 13 13 37 15
54 4z"/>
<path d="M849 933 c-86 -53 -78 -181 14 -227 115 -56 231 82 160 190 -34 52
-121 70 -174 37z m94 -45 c52 -27 61 -75 22 -113 -58 -59 -147 6 -112 82 8 18
33 34 65 42 2 1 13 -4 25 -11z"/>
<path d="M554 780 c-30 -12 -54 -54 -54 -95 0 -27 8 -44 29 -66 65 -64 171
-20 171 71 0 76 -72 120 -146 90z m86 -69 c20 -38 -16 -76 -56 -61 -27 10 -34
29 -23 58 11 29 63 31 79 3z"/>
<path d="M1220 660 c-22 -14 0 -44 36 -48 34 -4 60 23 43 45 -13 15 -57 17
-79 3z"/>
<path d="M1000 607 c-14 -7 -33 -29 -43 -49 -16 -33 -16 -40 -4 -71 27 -62 79
-82 137 -52 35 18 50 43 50 85 0 42 -15 67 -50 85 -35 18 -57 19 -90 2z m78
-64 c15 -29 -3 -63 -33 -63 -32 0 -55 41 -35 65 17 20 57 19 68 -2z"/>
<path d="M771 566 c-6 -7 -8 -21 -5 -30 9 -24 68 -18 72 8 7 32 -44 49 -67 22z"/>
</g>
</svg>
